# xmcd
#
# Track frame offsets: 
#        150
#        15067
#        35808
#        47061
#        63392
#        84551
#        102673
#        112178
#        128698
#        151804
#        166985
#
# Disc length: 4481 seconds
#
# Revision: 0
# Processed by: cddbd v1.5.2PL0 Copyright (c) Steve Scherf et al.
# Submitted via: ExactAudioCopy v1.0b4
#
DISCID=88117f0b
DTITLE=Animals - Before We Were So Rudely Interrupted (LP)
DYEAR=1977
DGENRE=Blues
TTITLE0=Brother Bill (The Last Clean Shirt)
TTITLE1=It's All Over Now, Baby Blue
TTITLE2=Fire On The sun
TTITLE3=As The Crow Flies
TTITLE4=Please Send Me Someone To Love
TTITLE5=Many Rivers To Cross
TTITLE6=Just a Little Bit
TTITLE7=Riverside County
TTITLE8=Lonely Avenue
TTITLE9=The Fool
TTITLE10=01 - 11-Before We Were So Rudely Interrupted
EXTD=
EXTT0=
EXTT1=
EXTT2=
EXTT3=
EXTT4=
EXTT5=
EXTT6=
EXTT7=
EXTT8=
EXTT9=
EXTT10=
PLAYORDER=
